<?xml version="1.0" encoding="iso-8859-1"?>
<!-- Uploaded to: SVG Repo, www.svgrepo.com, Generator: SVG Repo Mixer Tools -->
<!DOCTYPE svg PUBLIC "-//W3C//DTD SVG 1.1//EN" "http://www.w3.org/Graphics/SVG/1.1/DTD/svg11.dtd">
<svg fill="#ffffff" version="1.1" id="Capa_1" xmlns="http://www.w3.org/2000/svg" xmlns:xlink="http://www.w3.org/1999/xlink"
	 width="800px" height="800px" viewBox="0 0 324.932 324.932"
	 xml:space="preserve">
<g>
	<path d="M295.904,49.732H29.015C13.016,49.732,0,62.738,0,78.75v167.429C0,262.193,13.021,275.2,29.015,275.2h266.889
		c16.021,0,29.027-13.007,29.027-29.021V78.75C324.932,62.738,311.925,49.732,295.904,49.732z M196.771,173.011l-43.559,31.729
		c-2.516,1.832-5.503,2.757-8.485,2.757c-2.233,0-4.482-0.517-6.542-1.567c-4.834-2.456-7.878-7.422-7.878-12.851V129.62
		c0-5.432,3.044-10.392,7.878-12.859c4.837-2.453,10.638-1.997,15.027,1.195l43.559,31.726c3.729,2.727,5.933,7.047,5.933,11.655
		C202.704,165.948,200.5,170.284,196.771,173.011z"/>
</g>
</svg>